<svg width="263" height="61" viewBox="0 0 263 61" fill="none" xmlns="http://www.w3.org/2000/svg">
<path d="M9.00201 6.65996C8.548 6.65996 8.17627 6.28837 8.17627 5.83415V3.03382C8.17627 2.5796 8.548 2.20808 9.00201 2.20808C9.45644 2.20808 9.82796 2.5796 9.82796 3.03382V5.83415C9.82796 6.28837 9.45644 6.65996 9.00201 6.65996Z" fill="#111111"/>
<path d="M16.5431 6.65996C16.0889 6.65996 15.7173 6.28837 15.7173 5.83415V3.03382C15.7173 2.5796 16.0889 2.20808 16.5431 2.20808C16.9971 2.20808 17.3688 2.5796 17.3688 3.03382V5.83415C17.3688 6.28837 16.9971 6.65996 16.5431 6.65996Z" fill="#111111"/>
<path d="M24.8482 6.55695C24.394 6.55695 24.0225 6.18543 24.0225 5.73114V2.93081C24.0225 2.47659 24.394 2.10507 24.8482 2.10507C25.3024 2.10507 25.6739 2.47659 25.6739 2.93081V5.73114C25.6739 6.18543 25.3024 6.55695 24.8482 6.55695Z" fill="#111111"/>
<path d="M32.3209 6.55695C31.8666 6.55695 31.4951 6.18543 31.4951 5.73114V2.93081C31.4951 2.47659 31.8666 2.10507 32.3209 2.10507C32.7751 2.10507 33.1467 2.47659 33.1467 2.93081V5.73114C33.1467 6.18543 32.7751 6.55695 32.3209 6.55695Z" fill="#111111"/>
<path d="M33.1509 2.9608H7.59592C6.99345 2.9608 6.50049 2.46791 6.50049 1.86544V1.4731C6.50049 0.87063 6.99345 0.37767 7.59592 0.37767H33.1509C33.7533 0.37767 34.2463 0.87063 34.2463 1.4731V1.86544C34.2463 2.46791 33.7533 2.9608 33.1509 2.9608Z" fill="url(#paint0_linear_24_683)"/>
<path d="M39.053 1.82986H2.21564C1.71238 1.82986 1.30078 1.41812 1.30078 0.915001C1.30078 0.41174 1.71238 0 2.21564 0H39.053C39.5561 0 39.9679 0.41174 39.9679 0.915001C39.9679 1.41812 39.5561 1.82986 39.053 1.82986Z" fill="url(#paint1_linear_24_683)"/>
<path d="M8.44083 10.5848L10.7256 16.5332C10.8877 16.955 11.2928 17.2333 11.745 17.2333H30.8437C31.3595 17.2333 31.8049 16.8724 31.9119 16.368L33.1725 10.4196C33.3164 9.74065 32.7983 9.10141 32.1043 9.10141H9.45998C8.69401 9.10141 8.16612 9.86964 8.44083 10.5848Z" fill="url(#paint2_linear_24_683)"/>
<path d="M11.6387 12.6019H14.6916C14.9023 12.6019 15.0796 12.7596 15.104 12.9689L15.4106 15.5852C15.4395 15.8319 15.2468 16.0485 14.9982 16.0485H12.3131C12.1238 16.0485 11.9583 15.9204 11.9111 15.7369L11.2365 13.1208C11.1688 12.8579 11.3672 12.6019 11.6387 12.6019Z" fill="white"/>
<path d="M17.1101 12.7365H19.5747C19.8806 12.7365 20.1312 12.9792 20.1412 13.2849L20.2119 15.4634C20.2224 15.7834 19.9659 16.0485 19.6456 16.0485H17.2165C16.914 16.0485 16.6651 15.8114 16.6504 15.5094L16.5441 13.3309C16.5283 13.0073 16.7863 12.7365 17.1101 12.7365Z" fill="white"/>
<path d="M30.3633 12.6569H27.3102C27.0996 12.6569 26.9223 12.8147 26.8978 13.0238L26.5913 15.64C26.5623 15.8868 26.755 16.1037 27.0035 16.1037H29.6887C29.8782 16.1037 30.0435 15.9754 30.0908 15.7922L30.7653 13.1759C30.8329 12.913 30.6347 12.6569 30.3633 12.6569Z" fill="white"/>
<path d="M25.1075 12.7916H22.6428C22.3371 12.7916 22.0864 13.0341 22.0765 13.34L22.0057 15.5185C21.9952 15.8385 22.2517 16.1037 22.5721 16.1037H25.0013C25.3036 16.1037 25.5525 15.8664 25.5674 15.5645L25.6736 13.386C25.6893 13.0625 25.4314 12.7916 25.1075 12.7916Z" fill="white"/>
<path d="M33.7716 10.6093H7.85275C7.33862 10.6093 6.93218 10.1735 6.96802 9.66069L7.22092 6.04873C7.25352 5.58407 7.63993 5.22398 8.10558 5.22398H33.4375C33.8957 5.22398 34.2784 5.57292 34.3205 6.02905L34.6547 9.64086C34.7027 10.1606 34.2937 10.6093 33.7716 10.6093Z" fill="url(#paint3_linear_24_683)"/>
<path d="M34.5422 8.76489C33.8018 8.81978 11.745 8.68592 7.03082 8.76489L6.96802 9.66069C6.93218 10.1736 7.33862 10.6094 7.85275 10.6094H33.7716C34.2937 10.6094 34.7027 10.1606 34.6547 9.64087L34.5422 8.76489Z" fill="url(#paint4_linear_24_683)"/>
<path d="M3.71931 7.26187C4.0741 5.48119 5.62806 4.24534 7.37402 4.22565C7.13664 4.1239 6.88544 4.04465 6.62209 3.9923C4.578 3.58493 2.59064 4.91188 2.18341 6.95577C1.7759 8.99993 3.10286 10.9872 5.14688 11.3946C5.41037 11.447 5.67265 11.4703 5.93099 11.4673C4.3258 10.7798 3.36444 9.04255 3.71931 7.26187Z" fill="#111111"/>
<path d="M6.04408 22.1867C3.08019 21.5961 1.15626 18.7145 1.74688 15.7505C2.21635 13.3951 4.13279 11.6981 6.38723 11.3964C3.55007 11.0177 0.869353 12.9038 0.301878 15.7505C-0.288742 18.7145 1.63518 21.5961 4.59907 22.1867C5.20769 22.3079 5.81256 22.3217 6.39514 22.2437C6.27821 22.2281 6.16136 22.2101 6.04408 22.1867Z" fill="#111111"/>
<path d="M6.5271 26.3998C6.46169 26.0388 6.42584 25.6677 6.42584 25.2879C6.42584 24.854 6.47051 24.4306 6.55533 24.0219C6.88084 21.9655 7.97401 20.1868 9.51054 19.0318C6.74973 19.8787 4.74219 22.4478 4.74219 25.4862C4.74219 28.8357 7.18214 31.6151 10.3815 32.1449C8.34003 31.0317 6.86291 28.9114 6.5271 26.3998Z" fill="#111111"/>
<path d="M26.623 24.3644C26.6842 24.026 26.7179 23.6779 26.7179 23.3215C26.7179 22.9148 26.6758 22.5177 26.5966 22.1344C26.291 20.2058 25.2659 18.5376 23.8249 17.4542C26.4142 18.2485 28.2968 20.6581 28.2968 23.5077C28.2968 26.6492 26.0084 29.2559 23.0078 29.7527C24.9227 28.7086 26.3078 26.7201 26.623 24.3644Z" fill="#111111"/>
<path d="M22.495 55.6116C22.5564 55.2731 22.59 54.925 22.59 54.5688C22.59 54.1617 22.548 53.7648 22.4686 53.3815C22.1631 51.4527 21.1379 49.7846 19.6969 48.7015C22.2863 49.4955 24.169 51.9051 24.169 54.7548C24.169 57.8962 21.8807 60.5029 18.8799 61C20.7948 59.9556 22.1799 57.9672 22.495 55.6116Z" fill="#111111"/>
<path d="M38.2119 6.73729C37.8722 5.0331 36.385 3.85003 34.7139 3.83133C34.9411 3.73395 35.1816 3.65824 35.4336 3.608C37.3899 3.21806 39.2921 4.488 39.682 6.44438C40.0718 8.40076 38.8018 10.3027 36.8455 10.6925C36.5934 10.7427 36.3425 10.765 36.0951 10.7623C37.6313 10.1042 38.5516 8.44162 38.2119 6.73729Z" fill="#111111"/>
<path d="M34.602 20.4698C37.4388 19.9043 39.2801 17.1464 38.7147 14.3097C38.2655 12.0555 36.4314 10.4314 34.2737 10.1423C36.989 9.78014 39.5547 11.5852 40.0977 14.3097C40.6631 17.1464 38.8217 19.9043 35.985 20.4698C35.4024 20.5857 34.8235 20.599 34.2661 20.5242C34.3779 20.5093 34.4899 20.492 34.602 20.4698Z" fill="#111111"/>
<path d="M34.9747 25.2493C35.0563 24.8401 35.1011 24.4192 35.1011 23.9885C35.1011 23.4968 35.0453 23.0168 34.9393 22.5535C34.5323 20.2221 33.1661 18.2055 31.246 16.896C34.6963 17.8561 37.2052 20.7689 37.2052 24.2134C37.2052 28.011 34.1559 31.162 30.1572 31.7626C32.7088 30.5005 34.5547 28.0968 34.9747 25.2493Z" fill="#111111"/>
<path d="M20.138 18.7066C19.8769 19.4049 19.6394 20.1051 19.4392 20.8077C19.2419 21.5114 19.0833 22.2188 18.9898 22.9263C18.7977 24.339 18.8624 25.7514 19.2764 27.0432C19.4802 27.6895 19.7665 28.3043 20.1142 28.8846C20.4668 29.4624 20.877 30.0089 21.3398 30.5168C21.8007 31.0259 22.3091 31.5014 22.8511 31.9427C23.3898 32.3877 23.9548 32.8101 24.551 33.1952L24.7713 33.3438L25.0015 33.4895L25.4654 33.7825C25.64 33.9073 25.8183 34.0303 25.9873 34.1598L26.2283 34.3624C26.3069 34.4319 26.3921 34.4932 26.4644 34.5709C27.073 35.1514 27.5921 35.843 27.9521 36.6187C28.3158 37.3913 28.5086 38.2503 28.5086 39.1079C28.5207 39.967 28.3042 40.8206 27.9325 41.5792C27.9096 41.6267 27.8883 41.6751 27.8637 41.7218L27.7843 41.8587L27.6229 42.1302C27.5658 42.2182 27.5014 42.3013 27.4408 42.3864C27.3772 42.4694 27.3221 42.5588 27.2516 42.6355L27.0467 42.8703L26.9436 42.9866L26.8322 43.0939L26.6086 43.3066C26.5356 43.3789 26.4503 43.4366 26.3719 43.5019C25.735 44.0139 25.0136 44.383 24.2728 44.6339C23.5295 44.8827 22.7667 45.0176 22.0091 45.0684C21.25 45.1135 20.4971 45.0645 19.7599 44.9634C20.1298 44.9016 20.4973 44.8762 20.8585 44.7951L21.1294 44.7466L21.2644 44.7224L21.3979 44.6906L21.9294 44.5657C22.6291 44.3749 23.3046 44.1316 23.924 43.8072C24.544 43.4866 25.1063 43.0843 25.57 42.6091C25.6263 42.5482 25.6905 42.4947 25.7404 42.4289L25.8982 42.2393L25.9774 42.1458L26.0475 42.0457L26.1872 41.8464C26.2364 41.782 26.2693 41.7073 26.3113 41.6388C26.3504 41.5685 26.3937 41.501 26.4294 41.4295L26.5296 41.2123L26.5808 41.1049C26.596 41.0683 26.6081 41.0304 26.622 40.9932L26.7036 40.7709C26.7305 40.6971 26.7449 40.6188 26.7669 40.5435L26.7972 40.43C26.8086 40.3925 26.8174 40.3543 26.8222 40.3154L26.8616 40.0842C26.8783 40.008 26.8815 39.9296 26.8889 39.8521C26.8952 39.7745 26.9049 39.6975 26.9091 39.6198L26.9089 39.3864L26.9099 39.2704L26.8994 39.1541C26.8489 38.5366 26.6919 37.925 26.3941 37.3749C26.1045 36.8228 25.7147 36.3185 25.2403 35.895C25.1237 35.7872 24.995 35.6909 24.8741 35.5871C24.7486 35.4938 24.6212 35.409 24.4963 35.3176L24.0199 35.0232L23.7807 34.8746L23.5405 34.715C22.2636 33.8626 21.0487 32.8647 20.0339 31.6476C19.5312 31.0372 19.0746 30.3774 18.7103 29.6624C18.5268 29.3064 18.3635 28.9384 18.2262 28.5607C18.1888 28.4675 18.1593 28.3713 18.1298 28.2752L18.0405 27.9875C17.9829 27.7952 17.9414 27.5982 17.892 27.4041C17.8506 27.2081 17.818 27.0101 17.7843 26.8134C17.7626 26.6144 17.737 26.4166 17.7207 26.2182C17.7123 26.0194 17.695 25.8212 17.6953 25.6231L17.6987 25.3263L17.7011 25.1784L17.711 25.0308C17.7547 24.244 17.9007 23.4746 18.1174 22.7373C18.3368 22.0006 18.6256 21.2943 18.9682 20.6227C19.3084 19.95 19.7037 19.3119 20.138 18.7066Z" fill="#111111"/>
<path d="M20.131 33.8096C20.4847 34.2572 20.7998 34.7369 21.0768 35.2437C21.3547 35.7505 21.5896 36.2868 21.7716 36.8507C21.9507 37.4146 22.0755 38.007 22.1192 38.6166C22.1274 38.6926 22.1308 38.769 22.1326 38.8457L22.1388 39.0759C22.1412 39.2298 22.13 39.3839 22.1255 39.5387C22.1152 39.6931 22.0972 39.8473 22.0825 40.0024C22.0587 40.156 22.0348 40.3104 22.0042 40.4636C21.9677 40.6151 21.9369 40.7692 21.8938 40.9196C21.8473 41.0684 21.809 41.2217 21.754 41.368C21.6501 41.6636 21.525 41.9514 21.3847 42.2301C21.1065 42.7898 20.7538 43.305 20.3669 43.7811C19.5851 44.7304 18.6479 45.5027 17.6662 46.1594L17.4813 46.2821L17.2982 46.3952L16.9349 46.6191L16.6648 46.8111C16.5776 46.886 16.4844 46.9554 16.4 47.0328C16.0554 47.3359 15.7748 47.6966 15.5631 48.0893C15.3446 48.4809 15.2294 48.9162 15.1851 49.3565L15.176 49.4397L15.1755 49.5227L15.1726 49.6895C15.1747 49.7448 15.181 49.8001 15.1846 49.8558C15.1888 49.9114 15.1902 49.9675 15.201 50.0223C15.2182 50.1326 15.2306 50.2449 15.2624 50.3531C15.2771 50.4076 15.2861 50.4641 15.3045 50.5175L15.3601 50.6787C15.6611 51.5444 16.383 52.2856 17.2955 52.7886C17.7513 53.0442 18.2541 53.2421 18.7792 53.4039C19.3067 53.5586 19.8555 53.6663 20.4186 53.7666C19.8585 53.8703 19.283 53.9229 18.6994 53.9066C18.1166 53.8847 17.5262 53.7955 16.9465 53.6153C16.369 53.4328 15.8016 53.1562 15.2966 52.7627C15.167 52.6691 15.0483 52.5598 14.9311 52.4482L14.8424 52.3647L14.7603 52.2746L14.5967 52.0919C14.5405 52.0319 14.4959 51.9625 14.4448 51.8976C14.3963 51.831 14.3449 51.766 14.2989 51.6971L14.1689 51.4842L14.1053 51.3767C14.0855 51.34 14.0682 51.3019 14.0496 51.2645C13.7491 50.668 13.5712 49.9919 13.5759 49.3104C13.5699 48.6297 13.7205 47.9472 14.005 47.3332C14.2871 46.7169 14.6971 46.1688 15.1759 45.7086C15.2954 45.593 15.4261 45.4919 15.5518 45.3839C15.6853 45.281 15.8271 45.1829 15.9656 45.0842L16.3168 44.8617L16.4907 44.7511L16.6558 44.6395C17.1036 44.3516 17.5264 44.0358 17.9297 43.7049C18.3362 43.378 18.7157 43.0248 19.061 42.6505C19.4078 42.2766 19.7143 41.8748 19.9807 41.4523C20.1141 41.2406 20.23 41.02 20.3385 40.7959C20.3965 40.6848 20.4385 40.5682 20.4901 40.4543C20.5386 40.3391 20.5757 40.2201 20.62 40.1027C20.9429 39.1547 21.0158 38.1063 20.8992 37.0395C20.8432 36.5054 20.7383 35.9674 20.6058 35.4288C20.4721 34.8903 20.3059 34.3528 20.131 33.8096Z" fill="#111111"/>
<path d="M77.32 41H73.8V23.976L62.856 41H58.76V18.6H62.28V35.464L73.224 18.6H77.32V41ZM81.1737 18.6H100.054V41H96.5338V21.896H84.6937V41H81.1737V18.6ZM128.205 35.176V39.144L120.525 34.728V30.12L128.205 25.704V29.672L123.341 32.36L128.205 35.176ZM119.885 35.176V39.144L112.205 34.728V30.12L119.885 25.704V29.672L115.021 32.36L119.885 35.176ZM131.415 41V18.6H134.935V28.072H135.959L144.663 18.6H149.271L138.999 29.832L149.271 41H144.663L135.959 31.688H134.935V41H131.415ZM164.235 25H168.075L158.923 47.4H155.083L157.707 40.52L151.435 25H155.211L159.755 36.68L164.235 25ZM171.118 37.544C171.908 37.544 172.516 37.2987 172.942 36.808C173.39 36.3173 173.614 35.688 173.614 34.92V25H185.774V41H182.254V28.456H177.134V35.368C177.134 36.904 176.601 38.2267 175.534 39.336C174.489 40.4453 173.124 41 171.438 41H170.35V37.544H171.118ZM199.513 33.992H193.145V37.544H199.513C200.153 37.544 200.676 37.384 201.081 37.064C201.508 36.7227 201.721 36.3067 201.721 35.816C201.721 35.304 201.508 34.8773 201.081 34.536C200.654 34.1733 200.132 33.992 199.513 33.992ZM199.833 30.696C201.369 30.696 202.649 31.1973 203.673 32.2C204.718 33.2027 205.241 34.4293 205.241 35.88C205.241 37.3307 204.718 38.5467 203.673 39.528C202.649 40.5093 201.369 41 199.833 41H189.625V25H193.145V30.696H199.833ZM208.445 41V25H211.965V31.24H212.829L218.525 25H223.069L215.869 33L223.069 41H218.525L212.829 34.856H211.965V41H208.445ZM230.368 29.192C229.365 30.1733 228.864 31.432 228.864 32.968C228.864 34.504 229.365 35.7627 230.368 36.744C231.392 37.7253 232.64 38.216 234.112 38.216C235.584 38.216 236.821 37.7253 237.824 36.744C238.848 35.7627 239.36 34.504 239.36 32.968C239.36 31.432 238.848 30.1733 237.824 29.192C236.821 28.2107 235.584 27.72 234.112 27.72C232.64 27.72 231.392 28.2107 230.368 29.192ZM227.872 39.144C226.186 37.5227 225.344 35.464 225.344 32.968C225.344 30.472 226.186 28.4133 227.872 26.792C229.578 25.1707 231.658 24.36 234.112 24.36C236.565 24.36 238.634 25.1707 240.32 26.792C242.026 28.4133 242.88 30.472 242.88 32.968C242.88 35.464 242.026 37.5227 240.32 39.144C238.634 40.7653 236.565 41.576 234.112 41.576C231.658 41.576 229.578 40.7653 227.872 39.144ZM245.445 29.672V25.704L253.125 30.12V34.728L245.445 39.144V35.176L250.309 32.488L245.445 29.672ZM253.765 29.672V25.704L261.445 30.12V34.728L253.765 39.144V35.176L258.629 32.488L253.765 29.672Z" fill="#111111"/>
<defs>
<linearGradient id="paint0_linear_24_683" x1="3.58214" y1="6.569" x2="3.17805" y2="9.12033" gradientUnits="userSpaceOnUse">
<stop stop-color="#53D8FF"/>
<stop offset="1" stop-color="white"/>
</linearGradient>
<linearGradient id="paint1_linear_24_683" x1="-67.7858" y1="-34.36" x2="-67.5627" y2="-36.1762" gradientUnits="userSpaceOnUse">
<stop stop-color="#53D8FF"/>
<stop offset="1" stop-color="white"/>
</linearGradient>
<linearGradient id="paint2_linear_24_683" x1="-52.2365" y1="-60.6967" x2="-47.1189" y2="-67.0164" gradientUnits="userSpaceOnUse">
<stop stop-color="#53D8FF"/>
<stop offset="1" stop-color="white"/>
</linearGradient>
<linearGradient id="paint3_linear_24_683" x1="-62.4812" y1="-51.3915" x2="-60.1205" y2="-56.2319" gradientUnits="userSpaceOnUse">
<stop stop-color="#53D8FF"/>
<stop offset="1" stop-color="white"/>
</linearGradient>
<linearGradient id="paint4_linear_24_683" x1="6.96582" y1="8.73926" x2="6.96582" y2="10.6094" gradientUnits="userSpaceOnUse">
<stop stop-color="#53D8FF"/>
<stop offset="1" stop-color="white"/>
</linearGradient>
</defs>
</svg>
