<svg width="34" height="34" viewBox="0 0 34 34" fill="none" xmlns="http://www.w3.org/2000/svg">
<path d="M29.625 17L32.5 19.8125C33.375 20.625 32.9375 22.0625 31.8125 22.375L27.9375 23.375L29 27.25C29.3125 28.375 28.3125 29.375 27.1875 29.0625L23.3125 28L22.3125 31.875C22 33.0625 20.5625 33.4375 19.75 32.5625L17 29.6875L14.1875 32.5625C13.375 33.375 11.9375 33.0625 11.625 31.875L10.625 28L6.75 29.0625C5.625 29.375 4.625 28.375 4.9375 27.25L6 23.375L2.125 22.375C1 22.0625 0.5625 20.625 1.4375 19.8125L4.3125 17L1.4375 14.1875C0.5625 13.375 1 11.9375 2.125 11.6875L6 10.6875L4.9375 6.8125C4.625 5.6875 5.625 4.625 6.75 4.9375L10.625 6.0625L11.625 2.125C11.875 1 13.375 0.625 14.1875 1.5L17 4.375L19.75 1.5C20.5625 0.625 22.0625 1.0625 22.3125 2.125L23.3125 6.0625L27.1875 4.9375C28.3125 4.625 29.3125 5.6875 29 6.8125L27.9375 10.6875L31.8125 11.6875C32.9375 11.9375 33.375 13.375 32.5 14.1875L29.625 17Z" fill="white"/>
</svg>
