<svg width="36" height="33" viewBox="0 0 36 33" fill="none" xmlns="http://www.w3.org/2000/svg">
<path d="M18 0C22.3125 0 25.875 3.5625 25.875 7.875C25.875 11.4375 20.6875 17.8125 18.75 20.1875C18.3125 20.625 17.625 20.625 17.1875 20.1875C15.25 17.8125 10.125 11.4375 10.125 7.875C10.125 3.5625 13.625 0 18 0ZM18 10.5C19.4375 10.5 20.625 9.375 20.625 7.875C20.625 6.4375 19.4375 5.25 18 5.25C16.5 5.25 15.375 6.4375 15.375 7.875C15.375 9.375 16.5 10.5 18 10.5ZM1.25 13.5L8.625 10.5625C8.9375 11.5 9.4375 12.4375 10 13.4375V28L1.3125 31.9375C0.6875 32.25 0 31.75 0 31V15.375C0 14.5625 0.5 13.8125 1.25 13.5ZM18 22.5C18.875 22.5 19.6875 22.125 20.25 21.4375C21.5 20 22.8125 18.375 24 16.625V32L12 28V16.625C13.125 18.375 14.4375 20 15.6875 21.4375C16.25 22.125 17.0625 22.5 18 22.5ZM34.625 10.125C35.25 9.8125 36 10.3125 36 11.0625V26.6875C36 27.5 35.4375 28.25 34.6875 28.5625L26 32V14L34.625 10.125Z" fill="white"/>
</svg>
