<svg width="40" height="32" viewBox="0 0 40 32" fill="none" xmlns="http://www.w3.org/2000/svg">
<path d="M27.125 4C27.6875 4 28.1875 4.25 28.5625 4.625L31.9375 8V20.125C31.8125 19.9375 31.625 19.8125 31.5 19.625L22.375 12.25L24 10.75C24.4375 10.375 24.4375 9.75 24.0625 9.375C23.6875 8.9375 23.0625 8.9375 22.625 9.3125L17.6875 13.875C17.625 13.875 17.625 13.875 17.625 13.875C16.5625 14.8125 14.9375 14.5625 14.125 13.6875C13.25 12.75 13.25 11.1875 14.25 10.1875L20.4375 4.5625C20.8125 4.1875 21.25 4 21.75 4H27.125ZM34 8.0625H40V24.0625H36C34.875 24.0625 34 23.125 34 22.0625V8.0625ZM37 22.0625C37.5 22.0625 38 21.5625 38 21.0625C38 20.5 37.5 20.0625 37 20.0625C36.4375 20.0625 36 20.5 36 21.0625C36 21.5625 36.4375 22.0625 37 22.0625ZM0 24V8.0625H6V22C6 23.125 5.0625 24 4 24H0ZM3 20.0625C2.4375 20.0625 2 20.5 2 21.0625C2 21.5625 2.4375 22.0625 3 22.0625C3.5 22.0625 4 21.5625 4 21.0625C4 20.5 3.5 20.0625 3 20.0625ZM30.1875 21.1875C31.0625 21.875 31.1875 23.125 30.5 24L29.9375 24.75C29.1875 25.625 27.9375 25.75 27.125 25.0625L26.75 24.75L24.8125 27.1875C24 28.1875 22.5 28.3125 21.5 27.5L20.4375 26.5625H20.375C19 28.25 16.5 28.5625 14.75 27.125L9.125 22H8V8L11.375 4.625C11.75 4.25 12.25 4 12.8125 4H18.0625L12.9375 8.6875C11.125 10.375 11 13.25 12.625 15.0625C14.3125 16.875 17.125 17.0625 19 15.3125L20.875 13.625L30.1875 21.1875Z" fill="white"/>
</svg>
