<svg width="40" height="32" viewBox="0 0 40 32" fill="none" xmlns="http://www.w3.org/2000/svg">
<path d="M38.125 21.375L39.75 22.3125C39.9375 22.375 40 22.625 39.9375 22.8125C39.5 24.1875 38.8125 25.375 37.875 26.4375C37.75 26.5625 37.5 26.625 37.3125 26.5L35.6875 25.5625C35 26.125 34.25 26.625 33.375 26.875V28.75C33.375 29 33.25 29.1875 33.0625 29.1875C31.6875 29.5 30.3125 29.5 28.875 29.1875C28.6875 29.1875 28.5625 29 28.5625 28.75V26.875C27.6875 26.625 26.9375 26.125 26.25 25.5625L24.625 26.5C24.4375 26.625 24.1875 26.5625 24.0625 26.4375C23.125 25.375 22.375 24.1875 22 22.8125C21.9375 22.625 22 22.375 22.1875 22.3125L23.8125 21.375C23.625 20.5 23.625 19.5625 23.8125 18.6875L22.1875 17.75C22 17.6875 21.9375 17.4375 22 17.25C22.375 15.875 23.125 14.6875 24.0625 13.625C24.1875 13.5 24.4375 13.4375 24.625 13.5625L26.25 14.5C26.9375 13.9375 27.6875 13.4375 28.5625 13.1875V11.3125C28.5625 11.0625 28.6875 10.875 28.875 10.875C30.25 10.5625 31.625 10.5625 33.0625 10.875C33.25 10.875 33.375 11.0625 33.375 11.3125V13.1875C34.25 13.4375 35 13.9375 35.6875 14.5L37.3125 13.5625C37.5 13.4375 37.75 13.5 37.875 13.625C38.8125 14.6875 39.5 15.875 39.9375 17.25C40 17.4375 39.9375 17.6875 39.75 17.75L38.125 18.6875C38.3125 19.5625 38.3125 20.5 38.125 21.375ZM31 23.0625C32.625 23.0625 34 21.6875 34 20C34 18.375 32.625 17 31 17C29.3125 17 27.9375 18.375 27.9375 20C27.9375 21.6875 29.3125 23.0625 31 23.0625ZM6 14C3.75 14 2 12.25 2 10C2 7.8125 3.75 6 6 6C8.1875 6 10 7.8125 10 10C10 12.25 8.1875 14 6 14ZM20 16C16.125 16 13 12.875 13 9C13 5.1875 16.125 2.0625 19.9375 2.0625C23.8125 2.0625 26.9375 5.1875 26.9375 9.0625C26.9375 10.125 26.6875 11.125 26.25 12.0625C26.1875 12.0625 26.1875 12.0625 26.125 12.125L25.625 11.8125C25.25 11.625 24.8125 11.5 24.375 11.5C23.6875 11.5 23.0625 11.8125 22.5625 12.3125C21.625 13.375 20.8125 14.625 20.3125 16C20.1875 16 20.0625 16 20 16ZM26.5625 28.1875V28.75C26.5625 29.25 26.6875 29.625 26.9375 30H11C9.3125 30 8 28.6875 8 27V25.25C8 21.25 11.1875 18 15.1875 18H15.6875C17 18.625 18.4375 19 20 19C20.1875 19 20.375 19 20.5625 19C20.75 19.1875 20.9375 19.375 21.1875 19.5L21.6875 19.8125C21.6875 19.9375 21.6875 20.125 21.6875 20.25C21.625 20.3125 19.4375 21.25 20.0625 23.4375C20.5625 25 21.4375 26.5 22.625 27.75C23.0625 28.25 23.75 28.5625 24.375 28.5625C25.1875 28.5625 25.625 28.25 26.125 27.9375C26.25 28 26.375 28.125 26.5625 28.1875ZM10.8125 17.1875C8.25 18.5625 6.5 21.0625 6.0625 24H2C0.875 24 0 23.125 0 22V20C0 17.8125 1.75 16 4 16H8C9.0625 16 10.0625 16.5 10.8125 17.1875Z" fill="white"/>
</svg>
