<svg width="263" height="61" viewBox="0 0 263 61" fill="none" xmlns="http://www.w3.org/2000/svg">
<path d="M77.32 41H73.8V23.976L62.856 41H58.76V18.6H62.28V35.464L73.224 18.6H77.32V41ZM81.1737 18.6H100.054V41H96.5338V21.896H84.6937V41H81.1737V18.6ZM128.205 35.176V39.144L120.525 34.728V30.12L128.205 25.704V29.672L123.341 32.36L128.205 35.176ZM119.885 35.176V39.144L112.205 34.728V30.12L119.885 25.704V29.672L115.021 32.36L119.885 35.176ZM131.415 41V18.6H134.935V28.072H135.959L144.663 18.6H149.271L138.999 29.832L149.271 41H144.663L135.959 31.688H134.935V41H131.415ZM164.235 25H168.075L158.923 47.4H155.083L157.707 40.52L151.435 25H155.211L159.755 36.68L164.235 25ZM171.118 37.544C171.908 37.544 172.516 37.2987 172.942 36.808C173.39 36.3173 173.614 35.688 173.614 34.92V25H185.774V41H182.254V28.456H177.134V35.368C177.134 36.904 176.601 38.2267 175.534 39.336C174.489 40.4453 173.124 41 171.438 41H170.35V37.544H171.118ZM199.513 33.992H193.145V37.544H199.513C200.153 37.544 200.676 37.384 201.081 37.064C201.508 36.7227 201.721 36.3067 201.721 35.816C201.721 35.304 201.508 34.8773 201.081 34.536C200.654 34.1733 200.132 33.992 199.513 33.992ZM199.833 30.696C201.369 30.696 202.649 31.1973 203.673 32.2C204.718 33.2027 205.241 34.4293 205.241 35.88C205.241 37.3307 204.718 38.5467 203.673 39.528C202.649 40.5093 201.369 41 199.833 41H189.625V25H193.145V30.696H199.833ZM208.445 41V25H211.965V31.24H212.829L218.525 25H223.069L215.869 33L223.069 41H218.525L212.829 34.856H211.965V41H208.445ZM230.368 29.192C229.365 30.1733 228.864 31.432 228.864 32.968C228.864 34.504 229.365 35.7627 230.368 36.744C231.392 37.7253 232.64 38.216 234.112 38.216C235.584 38.216 236.821 37.7253 237.824 36.744C238.848 35.7627 239.36 34.504 239.36 32.968C239.36 31.432 238.848 30.1733 237.824 29.192C236.821 28.2107 235.584 27.72 234.112 27.72C232.64 27.72 231.392 28.2107 230.368 29.192ZM227.872 39.144C226.186 37.5227 225.344 35.464 225.344 32.968C225.344 30.472 226.186 28.4133 227.872 26.792C229.578 25.1707 231.658 24.36 234.112 24.36C236.565 24.36 238.634 25.1707 240.32 26.792C242.026 28.4133 242.88 30.472 242.88 32.968C242.88 35.464 242.026 37.5227 240.32 39.144C238.634 40.7653 236.565 41.576 234.112 41.576C231.658 41.576 229.578 40.7653 227.872 39.144ZM245.445 29.672V25.704L253.125 30.12V34.728L245.445 39.144V35.176L250.309 32.488L245.445 29.672ZM253.765 29.672V25.704L261.445 30.12V34.728L253.765 39.144V35.176L258.629 32.488L253.765 29.672Z" fill="#111111"/>
<path d="M9.00659 6.65994C8.55258 6.65994 8.18085 6.28835 8.18085 5.83413V3.03381C8.18085 2.57959 8.55258 2.20807 9.00659 2.20807C9.46102 2.20807 9.83253 2.57959 9.83253 3.03381V5.83413C9.83253 6.28835 9.46102 6.65994 9.00659 6.65994Z" fill="#111111"/>
<path d="M16.548 6.65994C16.0938 6.65994 15.7222 6.28835 15.7222 5.83413V3.03381C15.7222 2.57959 16.0938 2.20807 16.548 2.20807C17.002 2.20807 17.3738 2.57959 17.3738 3.03381V5.83413C17.3738 6.28835 17.002 6.65994 16.548 6.65994Z" fill="#111111"/>
<path d="M24.8531 6.55692C24.3989 6.55692 24.0274 6.1854 24.0274 5.73111V2.93078C24.0274 2.47656 24.3989 2.10504 24.8531 2.10504C25.3074 2.10504 25.6789 2.47656 25.6789 2.93078V5.73111C25.6789 6.1854 25.3074 6.55692 24.8531 6.55692Z" fill="#111111"/>
<path d="M32.3257 6.55692C31.8715 6.55692 31.5 6.1854 31.5 5.73111V2.93078C31.5 2.47656 31.8715 2.10504 32.3257 2.10504C32.78 2.10504 33.1515 2.47656 33.1515 2.93078V5.73111C33.1515 6.1854 32.78 6.55692 32.3257 6.55692Z" fill="#111111"/>
<path d="M33.1554 2.96082H7.60038C6.9979 2.96082 6.50494 2.46793 6.50494 1.86545V1.47312C6.50494 0.870645 6.9979 0.377686 7.60038 0.377686H33.1554C33.7578 0.377686 34.2507 0.870645 34.2507 1.47312V1.86545C34.2507 2.46793 33.7578 2.96082 33.1554 2.96082Z" fill="url(#paint0_linear_67_29)"/>
<path d="M39.0579 1.82986H2.22053C1.71726 1.82986 1.30566 1.41812 1.30566 0.915001C1.30566 0.41174 1.71726 0 2.22053 0H39.0579C39.561 0 39.9728 0.41174 39.9728 0.915001C39.9728 1.41812 39.561 1.82986 39.0579 1.82986Z" fill="url(#paint1_linear_67_29)"/>
<path d="M8.44534 10.5848L10.7301 16.5332C10.8922 16.955 11.2973 17.2334 11.7495 17.2334H30.8482C31.364 17.2334 31.8095 16.8724 31.9164 16.368L33.177 10.4196C33.3209 9.74068 32.8029 9.10144 32.1089 9.10144H9.4645C8.69853 9.10144 8.17064 9.86967 8.44534 10.5848Z" fill="url(#paint2_linear_67_29)"/>
<path d="M11.6433 12.6019H14.6962C14.9069 12.6019 15.0842 12.7596 15.1086 12.9689L15.4152 15.5852C15.4441 15.8319 15.2513 16.0486 15.0028 16.0486H12.3177C12.1283 16.0486 11.9629 15.9204 11.9157 15.737L11.2411 13.1209C11.1734 12.8579 11.3718 12.6019 11.6433 12.6019Z" fill="white"/>
<path d="M17.1146 12.7365H19.5792C19.8851 12.7365 20.1357 12.9793 20.1457 13.2849L20.2164 15.4635C20.2269 15.7835 19.9704 16.0486 19.6502 16.0486H17.221C16.9186 16.0486 16.6696 15.8114 16.6549 15.5095L16.5487 13.3309C16.5329 13.0073 16.7908 12.7365 17.1146 12.7365Z" fill="white"/>
<path d="M30.3681 12.6569H27.3151C27.1045 12.6569 26.9272 12.8146 26.9027 13.0237L26.5962 15.64C26.5672 15.8868 26.7599 16.1036 27.0084 16.1036H29.6936C29.8831 16.1036 30.0484 15.9754 30.0957 15.7922L30.7701 13.1759C30.8378 12.913 30.6395 12.6569 30.3681 12.6569Z" fill="white"/>
<path d="M25.1122 12.7916H22.6476C22.3418 12.7916 22.0912 13.0342 22.0813 13.34L22.0104 15.5185C21.9999 15.8385 22.2565 16.1037 22.5769 16.1037H25.006C25.3083 16.1037 25.5573 15.8664 25.5722 15.5645L25.6784 13.386C25.694 13.0625 25.4362 12.7916 25.1122 12.7916Z" fill="white"/>
<path d="M33.7765 10.6094H7.85757C7.34344 10.6094 6.937 10.1736 6.97284 9.6607L7.22574 6.04875C7.25834 5.58409 7.64475 5.224 8.1104 5.224H33.4423C33.9005 5.224 34.2832 5.57294 34.3253 6.02906L34.6596 9.64088C34.7076 10.1606 34.2985 10.6094 33.7765 10.6094Z" fill="url(#paint3_linear_67_29)"/>
<path d="M34.547 8.76489C33.8067 8.81978 11.7498 8.68592 7.03565 8.76489L6.97284 9.66069C6.937 10.1736 7.34344 10.6094 7.85757 10.6094H33.7765C34.2985 10.6094 34.7076 10.1606 34.6596 9.64087L34.547 8.76489Z" fill="url(#paint4_linear_67_29)"/>
<path d="M3.72382 7.2619C4.07862 5.48122 5.63257 4.24537 7.37854 4.22568C7.14116 4.12393 6.88995 4.04468 6.62661 3.99233C4.58251 3.58496 2.59515 4.91191 2.18793 6.9558C1.78042 8.99996 3.10738 10.9872 5.1514 11.3946C5.41489 11.447 5.67717 11.4703 5.93551 11.4674C4.33032 10.7799 3.36896 9.04258 3.72382 7.2619Z" fill="#111111"/>
<path d="M6.04872 22.1867C3.08483 21.5961 1.1609 18.7145 1.75152 15.7505C2.22098 13.3951 4.13743 11.6981 6.39187 11.3964C3.55471 11.0177 0.873991 12.9038 0.306517 15.7505C-0.284103 18.7145 1.63982 21.5961 4.60371 22.1867C5.21233 22.3079 5.8172 22.3217 6.39978 22.2437C6.28285 22.2281 6.166 22.2101 6.04872 22.1867Z" fill="#111111"/>
<path d="M6.53162 26.3998C6.4662 26.0389 6.43036 25.6677 6.43036 25.2879C6.43036 24.854 6.47502 24.4306 6.55984 24.0219C6.88535 21.9655 7.97853 20.1868 9.51506 19.0318C6.75425 19.8787 4.7467 22.4478 4.7467 25.4862C4.7467 28.8357 7.18666 31.6151 10.386 32.1449C8.34454 31.0317 6.86743 28.9114 6.53162 26.3998Z" fill="#111111"/>
<path d="M26.6277 24.3645C26.6889 24.026 26.7226 23.6779 26.7226 23.3215C26.7226 22.9148 26.6805 22.5177 26.6012 22.1344C26.2957 20.2059 25.2706 18.5377 23.8296 17.4542C26.4189 18.2485 28.3015 20.6581 28.3015 23.5077C28.3015 26.6493 26.0131 29.2559 23.0125 29.7527C24.9274 28.7087 26.3125 26.7202 26.6277 24.3645Z" fill="#111111"/>
<path d="M22.4995 55.6116C22.5609 55.2731 22.5944 54.925 22.5944 54.5688C22.5944 54.1617 22.5525 53.7648 22.473 53.3815C22.1675 51.4527 21.1424 49.7846 19.7014 48.7015C22.2907 49.4955 24.1735 51.9051 24.1735 54.7548C24.1735 57.8962 21.8851 60.5029 18.8843 61C20.7992 59.9556 22.1843 57.9672 22.4995 55.6116Z" fill="#111111"/>
<path d="M38.2165 6.73726C37.8768 5.03307 36.3895 3.85 34.7184 3.8313C34.9456 3.73392 35.1862 3.65821 35.4381 3.60797C37.3945 3.21803 39.2966 4.48797 39.6865 6.44435C40.0763 8.40073 38.8063 10.3026 36.85 10.6924C36.5979 10.7427 36.347 10.765 36.0996 10.7622C37.6359 10.1042 38.5561 8.44159 38.2165 6.73726Z" fill="#111111"/>
<path d="M34.6068 20.4698C37.4436 19.9043 39.2849 17.1464 38.7195 14.3097C38.2703 12.0555 36.4362 10.4314 34.2785 10.1423C36.9937 9.78014 39.5595 11.5852 40.1025 14.3097C40.6678 17.1464 38.8264 19.9043 35.9897 20.4698C35.4072 20.5857 34.8283 20.599 34.2709 20.5242C34.3826 20.5093 34.4947 20.492 34.6068 20.4698Z" fill="#111111"/>
<path d="M34.9795 25.2493C35.061 24.8401 35.1058 24.4192 35.1058 23.9885C35.1058 23.4968 35.05 23.0168 34.9441 22.5535C34.537 20.2221 33.1708 18.2055 31.2508 16.8959C34.7011 17.8561 37.21 20.7688 37.21 24.2134C37.21 28.011 34.1606 31.162 30.162 31.7626C32.7136 30.5004 34.5595 28.0968 34.9795 25.2493Z" fill="#111111"/>
<path d="M20.143 18.7065C19.8819 19.4049 19.6444 20.105 19.4441 20.8077C19.2468 21.5114 19.0883 22.2188 18.9948 22.9263C18.8026 24.339 18.8674 25.7514 19.2814 27.0432C19.4852 27.6895 19.7715 28.3043 20.1192 28.8846C20.4717 29.4624 20.882 30.0089 21.3447 30.5167C21.8056 31.0259 22.3141 31.5014 22.856 31.9427C23.3948 32.3877 23.9598 32.8101 24.5559 33.1952L24.7762 33.3438L25.0064 33.4895L25.4703 33.7824C25.6449 33.9073 25.8233 34.0303 25.9922 34.1598L26.2333 34.3623C26.3119 34.4319 26.397 34.4932 26.4694 34.5709C27.0779 35.1514 27.5971 35.843 27.957 36.6187C28.3208 37.3913 28.5135 38.2503 28.5135 39.1079C28.5257 39.9669 28.3091 40.8206 27.9375 41.5792C27.9145 41.6267 27.8932 41.6751 27.8687 41.7218L27.7892 41.8587L27.6279 42.1302C27.5707 42.2181 27.5063 42.3013 27.4458 42.3864C27.3821 42.4694 27.3271 42.5588 27.2565 42.6355L27.0516 42.8703L26.9486 42.9866L26.8372 43.0939L26.6135 43.3066C26.5406 43.3789 26.4553 43.4366 26.3769 43.5018C25.74 44.0139 25.0185 44.383 24.2777 44.6339C23.5345 44.8827 22.7717 45.0176 22.014 45.0684C21.255 45.1134 20.5021 45.0645 19.7648 44.9634C20.1347 44.9016 20.5022 44.8762 20.8634 44.7951L21.1344 44.7466L21.2694 44.7224L21.4029 44.6906L21.9343 44.5657C22.6341 44.3749 23.3095 44.1316 23.9289 43.8072C24.549 43.4866 25.1112 43.0842 25.575 42.6091C25.6313 42.5482 25.6954 42.4947 25.7453 42.4288L25.9031 42.2393L25.9823 42.1458L26.0524 42.0457L26.1921 41.8464C26.2413 41.782 26.2743 41.7073 26.3163 41.6387C26.3553 41.5685 26.3986 41.501 26.4343 41.4295L26.5346 41.2123L26.5857 41.1049C26.601 41.0683 26.613 41.0303 26.6269 40.9932L26.7085 40.7709C26.7355 40.6971 26.7498 40.6188 26.7718 40.5435L26.8022 40.43C26.8136 40.3925 26.8223 40.3543 26.8271 40.3154L26.8666 40.0841C26.8832 40.0079 26.8864 39.9296 26.8938 39.8521C26.9002 39.7744 26.9098 39.6975 26.914 39.6198L26.9139 39.3864L26.9148 39.2703L26.9043 39.154C26.8538 38.5366 26.6969 37.925 26.3991 37.3749C26.1094 36.8228 25.7196 36.3185 25.2452 35.895C25.1287 35.7872 25 35.6908 24.879 35.587C24.7535 35.4938 24.6262 35.4089 24.5012 35.3176L24.0248 35.0232L23.7857 34.8746L23.5454 34.7149C22.2686 33.8625 21.0537 32.8647 20.0388 31.6475C19.5361 31.0372 19.0795 30.3774 18.7153 29.6624C18.5318 29.3064 18.3684 28.9384 18.2312 28.5607C18.1937 28.4675 18.1643 28.3713 18.1348 28.2752L18.0455 27.9875C17.9878 27.7952 17.9463 27.5982 17.8969 27.4041C17.8556 27.2081 17.823 27.0101 17.7892 26.8134C17.7676 26.6144 17.7419 26.4166 17.7256 26.2181C17.7172 26.0194 17.6999 25.8212 17.7003 25.6231L17.7036 25.3263L17.706 25.1784L17.7159 25.0308C17.7597 24.244 17.9057 23.4745 18.1224 22.7373C18.3418 22.0005 18.6305 21.2943 18.9731 20.6227C19.3134 19.95 19.7087 19.3119 20.143 18.7065Z" fill="#111111"/>
<path d="M20.136 33.8096C20.4896 34.2572 20.8048 34.7369 21.0817 35.2438C21.3596 35.7505 21.5945 36.2868 21.7765 36.8507C21.9556 37.4146 22.0804 38.007 22.1241 38.6166C22.1324 38.6927 22.1358 38.769 22.1375 38.8457L22.1437 39.076C22.1461 39.2299 22.135 39.3839 22.1305 39.5387C22.1202 39.6931 22.1022 39.8473 22.0875 40.0025C22.0636 40.156 22.0397 40.3104 22.0092 40.4636C21.9727 40.6151 21.9418 40.7693 21.8987 40.9196C21.8522 41.0685 21.814 41.2217 21.7589 41.368C21.6551 41.6637 21.53 41.9514 21.3896 42.2301C21.1114 42.7899 20.7588 43.305 20.3719 43.7812C19.59 44.7305 18.6529 45.5028 17.6712 46.1594L17.4862 46.2821L17.3032 46.3952L16.9399 46.6192L16.6697 46.8112C16.5825 46.886 16.4894 46.9555 16.4049 47.0328C16.0603 47.336 15.7797 47.6967 15.568 48.0894C15.3496 48.4809 15.2344 48.9162 15.19 49.3565L15.181 49.4397L15.1805 49.5227L15.1776 49.6895C15.1796 49.7449 15.186 49.8001 15.1895 49.8558C15.1937 49.9114 15.1952 49.9676 15.206 50.0223C15.2231 50.1326 15.2355 50.2449 15.2673 50.3531C15.282 50.4076 15.2911 50.4641 15.3095 50.5175L15.3651 50.6787C15.666 51.5445 16.388 52.2857 17.3004 52.7886C17.7563 53.0442 18.259 53.2421 18.7842 53.404C19.3116 53.5586 19.8605 53.6664 20.4235 53.7666C19.8635 53.8703 19.2879 53.9229 18.7044 53.9066C18.1215 53.8848 17.5312 53.7955 16.9515 53.6154C16.3739 53.4329 15.8065 53.1563 15.3016 52.7627C15.1719 52.6691 15.0533 52.5598 14.936 52.4482L14.8474 52.3648L14.7652 52.2746L14.6016 52.0919C14.5454 52.032 14.5009 51.9625 14.4498 51.8976C14.4012 51.8311 14.3499 51.766 14.3039 51.6971L14.1739 51.4843L14.1102 51.3767C14.0904 51.34 14.0731 51.3019 14.0546 51.2645C13.754 50.668 13.5761 49.992 13.5808 49.3104C13.5748 48.6297 13.7255 47.9472 14.01 47.3332C14.2921 46.7169 14.7021 46.1688 15.1808 45.7087C15.3003 45.593 15.4311 45.4919 15.5567 45.3839C15.6902 45.2811 15.832 45.1829 15.9706 45.0843L16.3217 44.8618L16.4957 44.7511L16.6607 44.6396C17.1086 44.3517 17.5313 44.0358 17.9347 43.7049C18.3411 43.378 18.7207 43.0248 19.0659 42.6506C19.4128 42.2766 19.7192 41.8749 19.9857 41.4523C20.119 41.2406 20.235 41.0201 20.3434 40.796C20.4014 40.6848 20.4434 40.5682 20.4951 40.4543C20.5435 40.3391 20.5807 40.2202 20.6249 40.1027C20.9479 39.1548 21.0207 38.1063 20.9041 37.0395C20.8481 36.5054 20.7432 35.9675 20.6107 35.4288C20.477 34.8903 20.3108 34.3528 20.136 33.8096Z" fill="#111111"/>
<defs>
<linearGradient id="paint0_linear_67_29" x1="3.5866" y1="6.56902" x2="3.18251" y2="9.12034" gradientUnits="userSpaceOnUse">
<stop stop-color="#53D8FF"/>
<stop offset="1" stop-color="white"/>
</linearGradient>
<linearGradient id="paint1_linear_67_29" x1="-67.7809" y1="-34.36" x2="-67.5579" y2="-36.1762" gradientUnits="userSpaceOnUse">
<stop stop-color="#53D8FF"/>
<stop offset="1" stop-color="white"/>
</linearGradient>
<linearGradient id="paint2_linear_67_29" x1="-52.232" y1="-60.6967" x2="-47.1144" y2="-67.0164" gradientUnits="userSpaceOnUse">
<stop stop-color="#53D8FF"/>
<stop offset="1" stop-color="white"/>
</linearGradient>
<linearGradient id="paint3_linear_67_29" x1="-62.4764" y1="-51.3915" x2="-60.1156" y2="-56.2319" gradientUnits="userSpaceOnUse">
<stop stop-color="#53D8FF"/>
<stop offset="1" stop-color="white"/>
</linearGradient>
<linearGradient id="paint4_linear_67_29" x1="6.97064" y1="8.73926" x2="6.97064" y2="10.6094" gradientUnits="userSpaceOnUse">
<stop stop-color="#53D8FF"/>
<stop offset="1" stop-color="white"/>
</linearGradient>
</defs>
</svg>
