<svg width="22" height="33" viewBox="0 0 22 33" fill="none" xmlns="http://www.w3.org/2000/svg">
<path d="M6 28.4375V26H15.9375V28.4375C15.9375 28.8125 15.8125 29.1875 15.625 29.5625L14.5625 31.125C14.1875 31.6875 13.5625 32.0625 12.875 32.0625H9.0625C8.375 32.0625 7.75 31.6875 7.375 31.125L6.3125 29.5625C6.0625 29.1875 6 28.8125 6 28.4375ZM0 11C0 5.1875 4.5625 0.0625 10.9375 0C17 0 22 4.9375 22 11C22 13.8125 20.9375 16.3125 19.25 18.25C18.1875 19.4375 16.625 21.9375 16 24C16 24 16 24 16 24.0625H5.9375C5.9375 24 5.9375 24 5.9375 24C5.3125 21.9375 3.75 19.4375 2.6875 18.25C1 16.3125 0 13.8125 0 11ZM11 6C11.5 6 12 5.5625 12 5C12 4.5 11.5 4 11 4C7.125 4 4 7.1875 4 11C4 11.5625 4.4375 12 5 12C5.5 12 6 11.5625 6 11C6 8.25 8.1875 6 11 6Z" fill="white"/>
</svg>
